<mxfile host="app.diagrams.net" modified="2021-03-24T06:37:00.725Z" agent="5.0 (Windows NT 10.0; Win64; x64) AppleWebKit/537.36 (KHTML, like Gecko) Chrome/89.0.4389.90 Safari/537.36 Edg/89.0.774.54" etag="6cOHBeXQbS7Mbp73wwxt" version="14.4.8" type="github" pages="4">
  <diagram id="NsUuaLm-NWhIfQzwlZoX" name="Application Viewpoint">
    <mxGraphModel dx="1422" dy="746" grid="1" gridSize="10" guides="1" tooltips="1" connect="1" arrows="1" fold="1" page="1" pageScale="1" pageWidth="827" pageHeight="1169" math="0" shadow="0">
      <root>
        <mxCell id="0" />
        <mxCell id="1" parent="0" />
        <mxCell id="M_Ll6qZVbB9TwjaCCUk4-11" value="Subscribe" style="edgeStyle=orthogonalEdgeStyle;rounded=0;orthogonalLoop=1;jettySize=auto;html=1;entryX=0;entryY=0.5;entryDx=0;entryDy=0;entryPerimeter=0;" edge="1" parent="1" source="M_Ll6qZVbB9TwjaCCUk4-5" target="M_Ll6qZVbB9TwjaCCUk4-10">
          <mxGeometry relative="1" as="geometry">
            <Array as="points">
              <mxPoint x="185" y="460" />
            </Array>
          </mxGeometry>
        </mxCell>
        <mxCell id="M_Ll6qZVbB9TwjaCCUk4-5" value="NServiceBus Database" style="html=1;outlineConnect=0;whiteSpace=wrap;fillColor=#99ffff;shape=mxgraph.archimate3.businessObject;overflow=fill;align=left;" vertex="1" parent="1">
          <mxGeometry x="110" y="210" width="150" height="75" as="geometry" />
        </mxCell>
        <mxCell id="M_Ll6qZVbB9TwjaCCUk4-6" value="Application" style="html=1;outlineConnect=0;whiteSpace=wrap;fillColor=#99ffff;shape=mxgraph.archimate3.application;appType=comp;archiType=square;align=left;verticalAlign=top;" vertex="1" parent="1">
          <mxGeometry x="460" y="200" width="200" height="140" as="geometry" />
        </mxCell>
        <mxCell id="M_Ll6qZVbB9TwjaCCUk4-8" value="Publish" style="edgeStyle=orthogonalEdgeStyle;rounded=0;orthogonalLoop=1;jettySize=auto;html=1;entryX=1;entryY=0.75;entryDx=0;entryDy=0;entryPerimeter=0;" edge="1" parent="1" source="M_Ll6qZVbB9TwjaCCUk4-7" target="M_Ll6qZVbB9TwjaCCUk4-5">
          <mxGeometry relative="1" as="geometry" />
        </mxCell>
        <mxCell id="M_Ll6qZVbB9TwjaCCUk4-7" value="Core.ServiceBus" style="html=1;outlineConnect=0;whiteSpace=wrap;fillColor=#99ffff;shape=mxgraph.archimate3.application;appType=comp;archiType=square;align=left;" vertex="1" parent="1">
          <mxGeometry x="485" y="232.5" width="150" height="75" as="geometry" />
        </mxCell>
        <mxCell id="M_Ll6qZVbB9TwjaCCUk4-9" value="Application" style="html=1;outlineConnect=0;whiteSpace=wrap;fillColor=#99ffff;shape=mxgraph.archimate3.application;appType=comp;archiType=square;align=left;verticalAlign=top;" vertex="1" parent="1">
          <mxGeometry x="460" y="390" width="200" height="140" as="geometry" />
        </mxCell>
        <mxCell id="M_Ll6qZVbB9TwjaCCUk4-10" value="Core.ServiceBus" style="html=1;outlineConnect=0;whiteSpace=wrap;fillColor=#99ffff;shape=mxgraph.archimate3.application;appType=comp;archiType=square;align=left;" vertex="1" parent="1">
          <mxGeometry x="485" y="422.5" width="150" height="75" as="geometry" />
        </mxCell>
      </root>
    </mxGraphModel>
  </diagram>
  <diagram id="wpiUrzRWYCGQynBEBwfB" name="Current State">
    <mxGraphModel dx="1673" dy="2047" grid="1" gridSize="10" guides="1" tooltips="1" connect="1" arrows="1" fold="1" page="1" pageScale="1" pageWidth="827" pageHeight="1169" math="0" shadow="0">
      <root>
        <mxCell id="9j1l5OiEGWsiqwfu4Aab-0" />
        <mxCell id="9j1l5OiEGWsiqwfu4Aab-1" parent="9j1l5OiEGWsiqwfu4Aab-0" />
        <mxCell id="9j1l5OiEGWsiqwfu4Aab-15" value="DMIRS" style="html=1;outlineConnect=0;whiteSpace=wrap;fillColor=#FFB973;shape=mxgraph.archimate3.application;appType=location;archiType=square;align=left;verticalAlign=top;" vertex="1" parent="9j1l5OiEGWsiqwfu4Aab-1">
          <mxGeometry x="160" y="-40" width="640" height="530" as="geometry" />
        </mxCell>
        <mxCell id="9j1l5OiEGWsiqwfu4Aab-2" value="IIS" style="html=1;outlineConnect=0;whiteSpace=wrap;fillColor=#AFFFAF;shape=mxgraph.archimate3.application;appType=node;archiType=square;align=left;verticalAlign=top;" vertex="1" parent="9j1l5OiEGWsiqwfu4Aab-1">
          <mxGeometry x="210" y="300" width="310" height="160" as="geometry" />
        </mxCell>
        <mxCell id="9j1l5OiEGWsiqwfu4Aab-9" value="" style="edgeStyle=orthogonalEdgeStyle;rounded=0;orthogonalLoop=1;jettySize=auto;html=1;" edge="1" parent="9j1l5OiEGWsiqwfu4Aab-1" source="9j1l5OiEGWsiqwfu4Aab-3" target="9j1l5OiEGWsiqwfu4Aab-19">
          <mxGeometry relative="1" as="geometry">
            <Array as="points">
              <mxPoint x="420" y="130" />
              <mxPoint x="420" y="130" />
            </Array>
          </mxGeometry>
        </mxCell>
        <mxCell id="9j1l5OiEGWsiqwfu4Aab-10" value="Report Data" style="edgeStyle=orthogonalEdgeStyle;rounded=0;orthogonalLoop=1;jettySize=auto;html=1;" edge="1" parent="9j1l5OiEGWsiqwfu4Aab-1" source="9j1l5OiEGWsiqwfu4Aab-3" target="9j1l5OiEGWsiqwfu4Aab-7">
          <mxGeometry relative="1" as="geometry" />
        </mxCell>
        <mxCell id="9j1l5OiEGWsiqwfu4Aab-3" value="SQL Server / Core" style="html=1;outlineConnect=0;whiteSpace=wrap;fillColor=#AFFFAF;shape=mxgraph.archimate3.application;appType=node;archiType=square;align=left;verticalAlign=top;" vertex="1" parent="9j1l5OiEGWsiqwfu4Aab-1">
          <mxGeometry x="240" y="-6" width="220" height="105" as="geometry" />
        </mxCell>
        <mxCell id="9j1l5OiEGWsiqwfu4Aab-5" value="Application" style="html=1;outlineConnect=0;whiteSpace=wrap;fillColor=#AFFFAF;shape=mxgraph.archimate3.application;appType=sysSw;archiType=square;align=left;verticalAlign=top;" vertex="1" parent="9j1l5OiEGWsiqwfu4Aab-1">
          <mxGeometry x="230" y="330" width="130" height="110" as="geometry" />
        </mxCell>
        <mxCell id="9j1l5OiEGWsiqwfu4Aab-7" value="SSRS" style="html=1;outlineConnect=0;whiteSpace=wrap;fillColor=#AFFFAF;shape=mxgraph.archimate3.application;appType=node;archiType=square;align=left;" vertex="1" parent="9j1l5OiEGWsiqwfu4Aab-1">
          <mxGeometry x="610" y="10" width="150" height="75" as="geometry" />
        </mxCell>
        <mxCell id="9j1l5OiEGWsiqwfu4Aab-8" value="Application" style="html=1;outlineConnect=0;whiteSpace=wrap;fillColor=#AFFFAF;shape=mxgraph.archimate3.application;appType=sysSw;archiType=square;align=left;verticalAlign=top;" vertex="1" parent="9j1l5OiEGWsiqwfu4Aab-1">
          <mxGeometry x="367" y="330" width="123" height="110" as="geometry" />
        </mxCell>
        <mxCell id="9j1l5OiEGWsiqwfu4Aab-13" value="Publish Message" style="html=1;outlineConnect=0;whiteSpace=wrap;fillColor=#AFFFAF;shape=mxgraph.archimate3.application;appType=func;archiType=rounded;align=left;" vertex="1" parent="9j1l5OiEGWsiqwfu4Aab-1">
          <mxGeometry x="250" y="360" width="100" height="70" as="geometry" />
        </mxCell>
        <mxCell id="9j1l5OiEGWsiqwfu4Aab-14" value="Subscribe Message" style="html=1;outlineConnect=0;whiteSpace=wrap;fillColor=#AFFFAF;shape=mxgraph.archimate3.application;appType=func;archiType=rounded;align=left;" vertex="1" parent="9j1l5OiEGWsiqwfu4Aab-1">
          <mxGeometry x="378.5" y="360" width="100" height="70" as="geometry" />
        </mxCell>
        <mxCell id="9j1l5OiEGWsiqwfu4Aab-21" style="edgeStyle=orthogonalEdgeStyle;rounded=0;orthogonalLoop=1;jettySize=auto;html=1;" edge="1" parent="9j1l5OiEGWsiqwfu4Aab-1" source="9j1l5OiEGWsiqwfu4Aab-16" target="9j1l5OiEGWsiqwfu4Aab-3">
          <mxGeometry relative="1" as="geometry">
            <Array as="points">
              <mxPoint x="295" y="100" />
              <mxPoint x="295" y="100" />
            </Array>
          </mxGeometry>
        </mxCell>
        <mxCell id="9j1l5OiEGWsiqwfu4Aab-16" value="Message" style="html=1;outlineConnect=0;whiteSpace=wrap;fillColor=#AFFFAF;shape=mxgraph.archimate3.artifact;align=left;" vertex="1" parent="9j1l5OiEGWsiqwfu4Aab-1">
          <mxGeometry x="270" y="160" width="50" height="75" as="geometry" />
        </mxCell>
        <mxCell id="9j1l5OiEGWsiqwfu4Aab-17" value="" style="rounded=0;orthogonalLoop=1;jettySize=auto;html=1;edgeStyle=orthogonalEdgeStyle;" edge="1" parent="9j1l5OiEGWsiqwfu4Aab-1" source="9j1l5OiEGWsiqwfu4Aab-13" target="9j1l5OiEGWsiqwfu4Aab-16">
          <mxGeometry relative="1" as="geometry">
            <mxPoint x="294" y="330" as="sourcePoint" />
            <mxPoint x="294" y="155" as="targetPoint" />
            <Array as="points">
              <mxPoint x="300" y="280" />
              <mxPoint x="300" y="280" />
            </Array>
          </mxGeometry>
        </mxCell>
        <mxCell id="9j1l5OiEGWsiqwfu4Aab-20" style="rounded=0;orthogonalLoop=1;jettySize=auto;html=1;edgeStyle=orthogonalEdgeStyle;" edge="1" parent="9j1l5OiEGWsiqwfu4Aab-1" source="9j1l5OiEGWsiqwfu4Aab-19" target="9j1l5OiEGWsiqwfu4Aab-14">
          <mxGeometry relative="1" as="geometry">
            <Array as="points">
              <mxPoint x="429" y="260" />
              <mxPoint x="429" y="260" />
            </Array>
          </mxGeometry>
        </mxCell>
        <mxCell id="9j1l5OiEGWsiqwfu4Aab-19" value="Message" style="html=1;outlineConnect=0;whiteSpace=wrap;fillColor=#AFFFAF;shape=mxgraph.archimate3.artifact;align=left;" vertex="1" parent="9j1l5OiEGWsiqwfu4Aab-1">
          <mxGeometry x="401" y="160" width="50" height="75" as="geometry" />
        </mxCell>
        <mxCell id="9j1l5OiEGWsiqwfu4Aab-23" value="Queue Tables" style="html=1;outlineConnect=0;whiteSpace=wrap;fillColor=#AFFFAF;shape=mxgraph.archimate3.application;appType=artifact;archiType=square;align=left;" vertex="1" parent="9j1l5OiEGWsiqwfu4Aab-1">
          <mxGeometry x="292.5" y="24" width="115" height="55" as="geometry" />
        </mxCell>
      </root>
    </mxGraphModel>
  </diagram>
  <diagram id="L2xAtKFUsG8nVtLFoBfY" name="Cloud Native">
    <mxGraphModel dx="813" dy="426" grid="1" gridSize="10" guides="1" tooltips="1" connect="1" arrows="1" fold="1" page="1" pageScale="1" pageWidth="827" pageHeight="1169" math="0" shadow="0">
      <root>
        <mxCell id="-cBphtJiednAypq_Vrnv-0" />
        <mxCell id="-cBphtJiednAypq_Vrnv-1" parent="-cBphtJiednAypq_Vrnv-0" />
        <mxCell id="X1LT0vr9Y1vPJH1XSgBG-0" value="Azure" style="html=1;outlineConnect=0;whiteSpace=wrap;fillColor=#FFB973;shape=mxgraph.archimate3.application;appType=location;archiType=square;align=left;verticalAlign=top;" vertex="1" parent="-cBphtJiednAypq_Vrnv-1">
          <mxGeometry x="80" y="190" width="620" height="370" as="geometry" />
        </mxCell>
        <mxCell id="r0xP13_xQKBcCJXhFLEn-2" value="API Management" style="html=1;outlineConnect=0;whiteSpace=wrap;fillColor=#AFFFAF;shape=mxgraph.archimate3.service;align=center;" vertex="1" parent="-cBphtJiednAypq_Vrnv-1">
          <mxGeometry x="390" y="380" width="150" height="35" as="geometry" />
        </mxCell>
        <mxCell id="X1LT0vr9Y1vPJH1XSgBG-5" value="Application 1" style="html=1;outlineConnect=0;whiteSpace=wrap;fillColor=#99ffff;shape=mxgraph.archimate3.application;appType=collab;archiType=square;align=left;verticalAlign=top;" vertex="1" parent="-cBphtJiednAypq_Vrnv-1">
          <mxGeometry x="130" y="230" width="250" height="120" as="geometry" />
        </mxCell>
        <mxCell id="X1LT0vr9Y1vPJH1XSgBG-6" value="Application 2" style="html=1;outlineConnect=0;whiteSpace=wrap;fillColor=#99ffff;shape=mxgraph.archimate3.application;appType=collab;archiType=square;align=left;verticalAlign=top;" vertex="1" parent="-cBphtJiednAypq_Vrnv-1">
          <mxGeometry x="400" y="230" width="140" height="120" as="geometry" />
        </mxCell>
        <mxCell id="X1LT0vr9Y1vPJH1XSgBG-7" value="Function" style="html=1;outlineConnect=0;whiteSpace=wrap;fillColor=#99ffff;shape=mxgraph.archimate3.application;appType=comp;archiType=square;align=left;" vertex="1" parent="-cBphtJiednAypq_Vrnv-1">
          <mxGeometry x="150" y="270" width="90" height="55" as="geometry" />
        </mxCell>
        <mxCell id="X1LT0vr9Y1vPJH1XSgBG-8" value="Service" style="html=1;outlineConnect=0;whiteSpace=wrap;fillColor=#99ffff;shape=mxgraph.archimate3.application;appType=comp;archiType=square;align=left;" vertex="1" parent="-cBphtJiednAypq_Vrnv-1">
          <mxGeometry x="270" y="270" width="90" height="55" as="geometry" />
        </mxCell>
        <mxCell id="X1LT0vr9Y1vPJH1XSgBG-10" value="Service" style="html=1;outlineConnect=0;whiteSpace=wrap;fillColor=#99ffff;shape=mxgraph.archimate3.application;appType=comp;archiType=square;align=left;" vertex="1" parent="-cBphtJiednAypq_Vrnv-1">
          <mxGeometry x="427" y="270" width="90" height="55" as="geometry" />
        </mxCell>
        <mxCell id="r0xP13_xQKBcCJXhFLEn-4" style="edgeStyle=orthogonalEdgeStyle;rounded=0;orthogonalLoop=1;jettySize=auto;html=1;" edge="1" parent="-cBphtJiednAypq_Vrnv-1" source="X1LT0vr9Y1vPJH1XSgBG-10" target="r0xP13_xQKBcCJXhFLEn-2">
          <mxGeometry relative="1" as="geometry">
            <mxPoint x="445" y="330" as="sourcePoint" />
            <Array as="points">
              <mxPoint x="465" y="340" />
              <mxPoint x="465" y="340" />
            </Array>
          </mxGeometry>
        </mxCell>
        <mxCell id="X1LT0vr9Y1vPJH1XSgBG-13" value="Service Bus" style="html=1;outlineConnect=0;whiteSpace=wrap;fillColor=#AFFFAF;shape=mxgraph.archimate3.application;appType=serv;archiType=rounded;align=left;verticalAlign=top;" vertex="1" parent="-cBphtJiednAypq_Vrnv-1">
          <mxGeometry x="300" y="450" width="210" height="90" as="geometry" />
        </mxCell>
        <mxCell id="X1LT0vr9Y1vPJH1XSgBG-16" style="edgeStyle=orthogonalEdgeStyle;rounded=0;orthogonalLoop=1;jettySize=auto;html=1;" edge="1" parent="-cBphtJiednAypq_Vrnv-1" source="X1LT0vr9Y1vPJH1XSgBG-14" target="X1LT0vr9Y1vPJH1XSgBG-7">
          <mxGeometry relative="1" as="geometry" />
        </mxCell>
        <mxCell id="X1LT0vr9Y1vPJH1XSgBG-14" value="Queue" style="html=1;outlineConnect=0;whiteSpace=wrap;fillColor=#AFFFAF;shape=mxgraph.archimate3.application;appType=artifact;archiType=square;align=left;" vertex="1" parent="-cBphtJiednAypq_Vrnv-1">
          <mxGeometry x="310" y="485" width="90" height="35" as="geometry" />
        </mxCell>
        <mxCell id="X1LT0vr9Y1vPJH1XSgBG-12" value="Topic" style="html=1;outlineConnect=0;whiteSpace=wrap;fillColor=#AFFFAF;shape=mxgraph.archimate3.application;appType=artifact;archiType=square;align=left;" vertex="1" parent="-cBphtJiednAypq_Vrnv-1">
          <mxGeometry x="410" y="485" width="90" height="35" as="geometry" />
        </mxCell>
        <mxCell id="X1LT0vr9Y1vPJH1XSgBG-15" style="edgeStyle=orthogonalEdgeStyle;rounded=0;orthogonalLoop=1;jettySize=auto;html=1;" edge="1" parent="-cBphtJiednAypq_Vrnv-1" source="r0xP13_xQKBcCJXhFLEn-2" target="X1LT0vr9Y1vPJH1XSgBG-12">
          <mxGeometry relative="1" as="geometry">
            <Array as="points">
              <mxPoint x="455" y="430" />
              <mxPoint x="455" y="430" />
            </Array>
          </mxGeometry>
        </mxCell>
        <mxCell id="X1LT0vr9Y1vPJH1XSgBG-11" style="edgeStyle=orthogonalEdgeStyle;rounded=0;orthogonalLoop=1;jettySize=auto;html=1;" edge="1" parent="-cBphtJiednAypq_Vrnv-1" source="X1LT0vr9Y1vPJH1XSgBG-8" target="X1LT0vr9Y1vPJH1XSgBG-14">
          <mxGeometry relative="1" as="geometry">
            <mxPoint x="395" y="460" as="targetPoint" />
            <Array as="points">
              <mxPoint x="315" y="430" />
              <mxPoint x="380" y="430" />
            </Array>
          </mxGeometry>
        </mxCell>
        <mxCell id="ChqSmvZ9PwwJNdToHTYi-0" value="Application 3" style="html=1;outlineConnect=0;whiteSpace=wrap;fillColor=#99ffff;shape=mxgraph.archimate3.application;appType=collab;archiType=square;align=left;verticalAlign=top;" vertex="1" parent="-cBphtJiednAypq_Vrnv-1">
          <mxGeometry x="550" y="230" width="140" height="120" as="geometry" />
        </mxCell>
        <mxCell id="X1LT0vr9Y1vPJH1XSgBG-9" value="Function" style="html=1;outlineConnect=0;whiteSpace=wrap;fillColor=#99ffff;shape=mxgraph.archimate3.application;appType=comp;archiType=square;align=left;" vertex="1" parent="-cBphtJiednAypq_Vrnv-1">
          <mxGeometry x="575" y="270" width="90" height="55" as="geometry" />
        </mxCell>
        <mxCell id="r0xP13_xQKBcCJXhFLEn-7" style="edgeStyle=orthogonalEdgeStyle;rounded=0;orthogonalLoop=1;jettySize=auto;html=1;entryX=0.5;entryY=1;entryDx=0;entryDy=0;entryPerimeter=0;" edge="1" parent="-cBphtJiednAypq_Vrnv-1" source="X1LT0vr9Y1vPJH1XSgBG-12" target="X1LT0vr9Y1vPJH1XSgBG-9">
          <mxGeometry relative="1" as="geometry">
            <mxPoint x="470" y="495.02857142857135" as="sourcePoint" />
            <mxPoint x="585" y="330" as="targetPoint" />
          </mxGeometry>
        </mxCell>
      </root>
    </mxGraphModel>
  </diagram>
  <diagram id="GJq6mSlfsKzLDVGrs3HI" name="Page-4">
    <mxGraphModel dx="1422" dy="746" grid="1" gridSize="10" guides="1" tooltips="1" connect="1" arrows="1" fold="1" page="1" pageScale="1" pageWidth="827" pageHeight="1169" math="0" shadow="0">
      <root>
        <mxCell id="4RPSdZGtpMS1YVXAwNjr-0" />
        <mxCell id="4RPSdZGtpMS1YVXAwNjr-1" parent="4RPSdZGtpMS1YVXAwNjr-0" />
        <mxCell id="4RPSdZGtpMS1YVXAwNjr-6" value="RG" style="rounded=0;whiteSpace=wrap;html=1;align=left;" vertex="1" parent="4RPSdZGtpMS1YVXAwNjr-1">
          <mxGeometry x="90" y="110" width="300" height="210" as="geometry" />
        </mxCell>
        <mxCell id="4RPSdZGtpMS1YVXAwNjr-5" value="WEB1" style="ellipse;whiteSpace=wrap;html=1;align=left;" vertex="1" parent="4RPSdZGtpMS1YVXAwNjr-1">
          <mxGeometry x="120" y="170" width="60" height="45" as="geometry" />
        </mxCell>
        <mxCell id="4RPSdZGtpMS1YVXAwNjr-8" value="WEB2" style="ellipse;whiteSpace=wrap;html=1;align=left;" vertex="1" parent="4RPSdZGtpMS1YVXAwNjr-1">
          <mxGeometry x="120" y="120" width="60" height="45" as="geometry" />
        </mxCell>
        <mxCell id="4RPSdZGtpMS1YVXAwNjr-11" value="SB" style="rounded=0;whiteSpace=wrap;html=1;align=left;" vertex="1" parent="4RPSdZGtpMS1YVXAwNjr-1">
          <mxGeometry x="90" y="390" width="550" height="160" as="geometry" />
        </mxCell>
        <mxCell id="4RPSdZGtpMS1YVXAwNjr-12" value="Inbound Queue 1" style="rounded=0;whiteSpace=wrap;html=1;align=left;" vertex="1" parent="4RPSdZGtpMS1YVXAwNjr-1">
          <mxGeometry x="120" y="440" width="70" height="60" as="geometry" />
        </mxCell>
        <mxCell id="4RPSdZGtpMS1YVXAwNjr-13" value="Inbound Queue 2" style="rounded=0;whiteSpace=wrap;html=1;align=left;" vertex="1" parent="4RPSdZGtpMS1YVXAwNjr-1">
          <mxGeometry x="210" y="440" width="70" height="60" as="geometry" />
        </mxCell>
        <mxCell id="4RPSdZGtpMS1YVXAwNjr-14" value="Inbound Queue n+1" style="rounded=0;whiteSpace=wrap;html=1;align=left;" vertex="1" parent="4RPSdZGtpMS1YVXAwNjr-1">
          <mxGeometry x="300" y="440" width="70" height="60" as="geometry" />
        </mxCell>
        <mxCell id="4RPSdZGtpMS1YVXAwNjr-15" value="Outbound Queue n+1" style="rounded=0;whiteSpace=wrap;html=1;align=left;" vertex="1" parent="4RPSdZGtpMS1YVXAwNjr-1">
          <mxGeometry x="390" y="440" width="70" height="60" as="geometry" />
        </mxCell>
      </root>
    </mxGraphModel>
  </diagram>
</mxfile>
